<svg width="36" height="36" viewBox="0 0 36 36" fill="none" xmlns="http://www.w3.org/2000/svg">
<path d="M12 12L12 10.5C12 7.18629 14.6863 4.5 18 4.5V4.5C21.3137 4.5 24 7.18629 24 10.5L24 12" stroke="white" strokeWidth="2" strokeLinecap="round"/>
<path d="M22.5 21V18" stroke="white" strokeWidth="2" strokeLinecap="round"/>
<path d="M13.5 21V18" stroke="white" strokeWidth="2" strokeLinecap="round"/>
<path d="M6 16C6 14.1144 6 13.1716 6.58579 12.5858C7.17157 12 8.11438 12 10 12H26C27.8856 12 28.8284 12 29.4142 12.5858C30 13.1716 30 14.1144 30 16V23.5C30 27.2712 30 29.1569 28.8284 30.3284C27.6569 31.5 25.7712 31.5 22 31.5H14C10.2288 31.5 8.34315 31.5 7.17157 30.3284C6 29.1569 6 27.2712 6 23.5V16Z" stroke="white" strokeWidth="2"/>
</svg>
