<svg width="36" height="36" viewBox="0 0 36 36" fill="none" xmlns="http://www.w3.org/2000/svg">
    <path d="M25.05 29.595H10.95C9.84002 29.595 8.71502 28.8 8.34002 27.765L2.13002 10.38C1.36502 8.18997 1.92002 7.18497 2.52002 6.73497C3.12002 6.28497 4.24503 6.01497 6.13503 7.36497L11.985 11.55C12.165 11.655 12.33 11.7 12.45 11.67C12.585 11.625 12.69 11.505 12.765 11.295L15.405 4.25997C16.2 2.15997 17.37 1.84497 18 1.84497C18.63 1.84497 19.8 2.15997 20.595 4.25997L23.235 11.295C23.31 11.49 23.415 11.625 23.55 11.67C23.685 11.715 23.85 11.67 24.015 11.535L29.505 7.61997C31.515 6.17997 32.685 6.46497 33.33 6.92997C33.96 7.40997 34.545 8.47497 33.72 10.8L27.66 27.765C27.285 28.8 26.16 29.595 25.05 29.595ZM4.02002 8.71497C4.05002 8.92497 4.11002 9.22497 4.26002 9.61497L10.47 27C10.53 27.15 10.8 27.345 10.95 27.345H25.05C25.215 27.345 25.485 27.15 25.53 27L31.59 10.05C31.8 9.47997 31.86 9.08997 31.875 8.86497C31.65 8.93997 31.305 9.10497 30.81 9.46497L25.32 13.38C24.57 13.905 23.685 14.07 22.89 13.83C22.095 13.59 21.45 12.96 21.12 12.105L18.48 5.06997C18.285 4.54497 18.105 4.28997 18 4.16997C17.895 4.28997 17.715 4.54497 17.52 5.05497L14.88 12.09C14.565 12.945 13.92 13.575 13.11 13.815C12.315 14.055 11.415 13.89 10.68 13.365L4.83002 9.17997C4.48502 8.93997 4.21502 8.78997 4.02002 8.71497Z" fill="#292D32"/>
    <path d="M26.25 34.125H9.75C9.135 34.125 8.625 33.615 8.625 33C8.625 32.385 9.135 31.875 9.75 31.875H26.25C26.865 31.875 27.375 32.385 27.375 33C27.375 33.615 26.865 34.125 26.25 34.125Z" fill="#292D32"/>
    <path d="M21.75 22.125H14.25C13.635 22.125 13.125 21.615 13.125 21C13.125 20.385 13.635 19.875 14.25 19.875H21.75C22.365 19.875 22.875 20.385 22.875 21C22.875 21.615 22.365 22.125 21.75 22.125Z" fill="#292D32"/>
</svg>
